<svg xmlns="http://www.w3.org/2000/svg" xmlns:xlink="http://www.w3.org/1999/xlink" version="1.1" data-diagram-type="SEQUENCE" width="948px" height="630px" viewBox="0 0 948 630" zoomAndPan="magnify" preserveAspectRatio="none" contentStyleType="text/css"><defs/><g font-family="Helvetica, Arial, sans-serif" lengthAdjust="spacing"><g class="title" data-source-line="1"><text x="223.49" y="26.55" fill="#000" font-size="15" textLength="499.314" font-weight="700" font-family="Helvetica, Arial, sans-serif">Sequence Diagram - Employee Management System (Apply for Leave)</text></g><rect x="25.904" y="212" width="750.442" height="153" fill="#FFF" style="stroke:#FFF;stroke-width:1;"/><rect x="25.904" y="212" width="750.442" height="153" fill="none" style="stroke:#000;stroke-width:1.5;"/><rect x="166.408" y="464" width="338.406" height="104" fill="#FFF" style="stroke:#FFF;stroke-width:1;"/><rect x="166.408" y="464" width="338.406" height="104" fill="none" style="stroke:#000;stroke-width:1.5;"/><g><title>Employee</title><rect x="38.404" y="119" width="8" height="500" fill="#000" fill-opacity="0"/><line x1="41.904" y1="119" x2="41.904" y2="619" style="stroke:#181818;stroke-width:0.5;stroke-dasharray:5,5;"/></g><g><title>emp . Employee</title><rect x="232.875" y="119" width="8" height="500" fill="#000" fill-opacity="0"/><line x1="236.375" y1="119" x2="236.375" y2="619" style="stroke:#181818;stroke-width:0.5;stroke-dasharray:5,5;"/></g><g><title></title><rect x="231.375" y="146" width="10" height="233" fill="#FFF" style="stroke:#181818;stroke-width:1;"/></g><g><title></title><rect x="231.375" y="452" width="10" height="130" fill="#FFF" style="stroke:#181818;stroke-width:1;"/></g><g><title>bal . LeaveBalance</title><rect x="423.023" y="119" width="8" height="500" fill="#000" fill-opacity="0"/><line x1="426.523" y1="119" x2="426.523" y2="619" style="stroke:#181818;stroke-width:0.5;stroke-dasharray:5,5;"/></g><g><title></title><rect x="421.523" y="173" width="10" height="27" fill="#FFF" style="stroke:#181818;stroke-width:1;"/></g><g><title>req . LeaveRequest</title><rect x="574.046" y="237" width="8" height="382" fill="#000" fill-opacity="0"/><line x1="577.546" y1="237" x2="577.546" y2="619" style="stroke:#181818;stroke-width:0.5;stroke-dasharray:5,5;"/></g><g><title></title><rect x="572.546" y="425" width="10" height="157" fill="#FFF" style="stroke:#181818;stroke-width:1;"/></g><g><title>mgr . Manager</title><rect x="751.846" y="119" width="8" height="500" fill="#000" fill-opacity="0"/><line x1="755.346" y1="119" x2="755.346" y2="619" style="stroke:#181818;stroke-width:0.5;stroke-dasharray:5,5;"/></g><g><title></title><rect x="750.346" y="284" width="10" height="13" fill="#FFF" style="stroke:#181818;stroke-width:1;"/></g><g><title></title><rect x="750.346" y="398" width="10" height="203" fill="#FFF" style="stroke:#181818;stroke-width:1;"/></g><g><title>Manager</title><rect x="905.139" y="119" width="8" height="500" fill="#000" fill-opacity="0"/><line x1="908.639" y1="119" x2="908.639" y2="619" style="stroke:#181818;stroke-width:0.5;stroke-dasharray:5,5;"/></g><text x="10" y="116.01" fill="#000" font-size="13" textLength="57.808" font-family="Helvetica, Arial, sans-serif">Employee</text><ellipse cx="41.904" cy="54.5" rx="8" ry="8" fill="#FFF" style="stroke:#181818;stroke-width:0.5;"/><path d="M41.904,62.5 L41.904,89.5 M28.904,70.5 L54.904,70.5 M41.904,89.5 L28.904,104.5 M41.904,89.5 L54.904,104.5" style="stroke:#181818;stroke-width:0.5;" fill="none"/><rect x="182.408" y="91" width="107.933" height="27" fill="#FFF" style="stroke:#181818;stroke-width:0.5;"/><text x="189.408" y="108.01" fill="#000" font-size="13" textLength="93.933" font-family="Helvetica, Arial, sans-serif">emp : Employee</text><rect x="364.231" y="91" width="124.583" height="27" fill="#FFF" style="stroke:#181818;stroke-width:0.5;"/><text x="371.231" y="108.01" fill="#000" font-size="13" textLength="110.583" font-family="Helvetica, Arial, sans-serif">bal : LeaveBalance</text><rect x="706.08" y="91" width="98.532" height="27" fill="#FFF" style="stroke:#181818;stroke-width:0.5;"/><text x="713.08" y="108.01" fill="#000" font-size="13" textLength="84.532" font-family="Helvetica, Arial, sans-serif">mgr : Manager</text><text x="879.985" y="116.01" fill="#000" font-size="13" textLength="51.308" font-family="Helvetica, Arial, sans-serif">Manager</text><ellipse cx="908.639" cy="54.5" rx="8" ry="8" fill="#FFF" style="stroke:#181818;stroke-width:0.5;"/><path d="M908.639,62.5 L908.639,89.5 M895.639,70.5 L921.639,70.5 M908.639,89.5 L895.639,104.5 M908.639,89.5 L921.639,104.5" style="stroke:#181818;stroke-width:0.5;" fill="none"/><polygon points="219.375,142,229.375,146,219.375,150,223.375,146" fill="#181818" style="stroke:#181818;stroke-width:1;stroke-linejoin:miter;stroke-miterlimit:10;"/><line x1="41.904" y1="146" x2="225.375" y2="146" style="stroke:#181818;stroke-width:1.2;"/><text x="53.904" y="141.01" fill="#000" font-size="13" textLength="165.471" font-family="Helvetica, Arial, sans-serif">1: applyLeave(from, to, type)</text><polygon points="409.523,169,419.523,173,409.523,177,413.523,173" fill="#181818" style="stroke:#181818;stroke-width:1;stroke-linejoin:miter;stroke-miterlimit:10;"/><line x1="241.375" y1="173" x2="415.523" y2="173" style="stroke:#181818;stroke-width:1.2;"/><text x="250.875" y="168.01" fill="#000" font-size="13" textLength="161.148" font-family="Helvetica, Arial, sans-serif">1.1: hasBalance(type, days)</text><polygon points="252.375,196,242.375,200,252.375,204,248.375,200" fill="#181818" style="stroke:#181818;stroke-width:1;stroke-linejoin:miter;stroke-miterlimit:10;"/><line x1="246.375" y1="200" x2="420.523" y2="200" style="stroke:#181818;stroke-width:1.2;stroke-dasharray:2,2;"/><text x="301.101" y="195.01" fill="#000" font-size="13" textLength="60.696" font-family="Helvetica, Arial, sans-serif">true / false</text><path d="M25.904,212 L86.075,212 L86.075,217 L76.075,227 L25.904,227 L25.904,212" style="stroke:#000;stroke-width:1.5;" fill="#FFF"/><rect x="25.904" y="212" width="750.442" height="153" fill="none" style="stroke:#000;stroke-width:1.5;"/><text x="40.904" y="223.01" fill="#000" font-size="13" textLength="15.171" font-weight="700" font-family="Helvetica, Arial, sans-serif">alt</text><text x="101.075" y="224.01" fill="#000" font-size="13" textLength="118.466" font-weight="700" font-family="Helvetica, Arial, sans-serif">[balance sufficient]</text><rect x="513.814" y="237" width="127.464" height="27" fill="#FFF" style="stroke:#181818;stroke-width:0.5;"/><text x="520.814" y="254.01" fill="#000" font-size="13" textLength="113.464" font-family="Helvetica, Arial, sans-serif">req : LeaveRequest</text><polygon points="501.814,252,511.814,256,501.814,260,505.814,256" fill="#181818" style="stroke:#181818;stroke-width:1;stroke-linejoin:miter;stroke-miterlimit:10;"/><line x1="241.375" y1="256" x2="507.814" y2="256" style="stroke:#181818;stroke-width:1.2;"/><text x="253.666" y="251.01" fill="#000" font-size="13" textLength="247.857" font-family="Helvetica, Arial, sans-serif">1.2: «create» LeaveRequest(from, to, type)</text><polygon points="738.346,280,748.346,284,738.346,288,742.346,284" fill="#181818" style="stroke:#181818;stroke-width:1;stroke-linejoin:miter;stroke-miterlimit:10;"/><line x1="241.375" y1="284" x2="744.346" y2="284" style="stroke:#181818;stroke-width:1.2;"/><text x="447.815" y="279.01" fill="#000" font-size="13" textLength="96.091" font-family="Helvetica, Arial, sans-serif">1.3: forward(req)</text><polygon points="52.904,307,42.904,311,52.904,315,48.904,311" fill="#181818" style="stroke:#181818;stroke-width:1;stroke-linejoin:miter;stroke-miterlimit:10;"/><line x1="46.904" y1="311" x2="230.375" y2="311" style="stroke:#181818;stroke-width:1.2;stroke-dasharray:2,2;"/><text x="96.89" y="306.01" fill="#000" font-size="13" textLength="79.498" font-family="Helvetica, Arial, sans-serif">1.4: requestId</text><line x1="25.904" y1="320" x2="776.346" y2="320" style="stroke:#000;stroke-width:1;stroke-dasharray:2,2;"/><text x="30.904" y="332.01" fill="#000" font-size="13" textLength="77.994" font-weight="700" font-family="Helvetica, Arial, sans-serif">[insufficient]</text><polygon points="52.904,353,42.904,357,52.904,361,48.904,357" fill="#181818" style="stroke:#181818;stroke-width:1;stroke-linejoin:miter;stroke-miterlimit:10;"/><line x1="46.904" y1="357" x2="230.375" y2="357" style="stroke:#181818;stroke-width:1.2;stroke-dasharray:2,2;"/><text x="88.588" y="352.01" fill="#000" font-size="13" textLength="96.104" font-family="Helvetica, Arial, sans-serif">refused: shortfall</text><polygon points="771.346,394,761.346,398,771.346,402,767.346,398" fill="#181818" style="stroke:#181818;stroke-width:1;stroke-linejoin:miter;stroke-miterlimit:10;"/><line x1="765.346" y1="398" x2="907.639" y2="398" style="stroke:#181818;stroke-width:1.2;"/><text x="772.346" y="393.01" fill="#000" font-size="13" textLength="124.293" font-family="Helvetica, Arial, sans-serif">2: approve(requestId)</text><polygon points="593.546,421,583.546,425,593.546,429,589.546,425" fill="#181818" style="stroke:#181818;stroke-width:1;stroke-linejoin:miter;stroke-miterlimit:10;"/><line x1="587.546" y1="425" x2="749.346" y2="425" style="stroke:#181818;stroke-width:1.2;"/><text x="594.546" y="420.01" fill="#000" font-size="13" textLength="143.8" font-family="Helvetica, Arial, sans-serif">2.1: setStatus(Approved)</text><polygon points="252.375,448,242.375,452,252.375,456,248.375,452" fill="#181818" style="stroke:#181818;stroke-width:1;stroke-linejoin:miter;stroke-miterlimit:10;"/><line x1="246.375" y1="452" x2="571.546" y2="452" style="stroke:#181818;stroke-width:1.2;"/><text x="357.106" y="447.01" fill="#000" font-size="13" textLength="99.709" font-family="Helvetica, Arial, sans-serif">2.2: notify(status)</text><path d="M166.408,464 L226.579,464 L226.579,469 L216.579,479 L166.408,479 L166.408,464" style="stroke:#000;stroke-width:1.5;" fill="#FFF"/><rect x="166.408" y="464" width="338.406" height="104" fill="none" style="stroke:#000;stroke-width:1.5;"/><text x="181.408" y="475.01" fill="#000" font-size="13" textLength="15.171" font-weight="700" font-family="Helvetica, Arial, sans-serif">alt</text><text x="241.579" y="476.01" fill="#000" font-size="13" textLength="67.171" font-weight="700" font-family="Helvetica, Arial, sans-serif">[approved]</text><polygon points="414.523,504,424.523,508,414.523,512,418.523,508" fill="#181818" style="stroke:#181818;stroke-width:1;stroke-linejoin:miter;stroke-miterlimit:10;"/><line x1="241.375" y1="508" x2="420.523" y2="508" style="stroke:#181818;stroke-width:1.2;"/><text x="262.407" y="503.01" fill="#000" font-size="13" textLength="143.083" font-family="Helvetica, Arial, sans-serif">2.2.1: deduct(type, days)</text><line x1="166.408" y1="517" x2="504.814" y2="517" style="stroke:#000;stroke-width:1;stroke-dasharray:2,2;"/><text x="171.408" y="529.01" fill="#000" font-size="13" textLength="58.519" font-weight="700" font-family="Helvetica, Arial, sans-serif">[rejected]</text><path d="M183.246,540 L183.246,563 L479.246,563 L479.246,550 L469.246,540 L183.246,540" style="stroke:#181818;stroke-width:0.5;" fill="#FFF"/><path d="M469.246,540 L469.246,550 L479.246,550 L469.246,540" style="stroke:#181818;stroke-width:0.5;" fill="#FFF"/><text x="270.204" y="555.01" fill="#000" font-size="13" textLength="113.49" font-family="Helvetica, Arial, sans-serif">balance unchanged</text><polygon points="896.639,597,906.639,601,896.639,605,900.639,601" fill="#181818" style="stroke:#181818;stroke-width:1;stroke-linejoin:miter;stroke-miterlimit:10;"/><line x1="760.346" y1="601" x2="902.639" y2="601" style="stroke:#181818;stroke-width:1.2;stroke-dasharray:2,2;"/><text x="770.537" y="596.01" fill="#000" font-size="13" textLength="127.912" font-family="Helvetica, Arial, sans-serif">2.3: decision recorded</text></g></svg>