<svg xmlns="http://www.w3.org/2000/svg" xmlns:xlink="http://www.w3.org/1999/xlink" version="1.1" data-diagram-type="STATE" width="881px" height="1370px" viewBox="0 0 881 1370" zoomAndPan="magnify" preserveAspectRatio="none" contentStyleType="text/css"><defs/><g font-family="Helvetica, Arial, sans-serif" lengthAdjust="spacing"><g class="title" data-source-line="1"><text x="238.454" y="21.55" fill="#000" font-size="15" textLength="397.581" font-weight="700" font-family="Helvetica, Arial, sans-serif">State Chart: ExamAttempt (Online Examination System)</text></g><g class="entity" data-qualified-name="Registered" id="ent0001" data-source-line="3"><rect x="451.06" y="137" width="150.781" height="59" fill="#FFF" style="stroke:#181818;stroke-width:0.5;"/><line x1="451.06" y1="160" x2="601.841" y2="160" style="stroke:#181818;stroke-width:0.5;"/><text x="495.017" y="152.01" fill="#000" font-size="13" textLength="62.867" font-family="Helvetica, Arial, sans-serif">Registered</text><text x="456.06" y="175.01" fill="#000" font-size="13" textLength="28.901" font-family="Helvetica, Arial, sans-serif">entry</text><text x="456.06" y="188.01" fill="#000" font-size="13" textLength="130.781" font-family="Helvetica, Arial, sans-serif">/ create attempt record</text></g><g class="entity" data-qualified-name="InProgress" id="ent0002" data-source-line="4"><rect x="254.49" y="297" width="173.918" height="111" fill="#FFF" style="stroke:#181818;stroke-width:0.5;"/><line x1="254.49" y1="320" x2="428.408" y2="320" style="stroke:#181818;stroke-width:0.5;"/><text x="310.019" y="312.01" fill="#000" font-size="13" textLength="62.861" font-family="Helvetica, Arial, sans-serif">InProgress</text><text x="259.49" y="335.01" fill="#000" font-size="13" textLength="28.901" font-family="Helvetica, Arial, sans-serif">entry</text><text x="259.49" y="348.01" fill="#000" font-size="13" textLength="65.006" font-family="Helvetica, Arial, sans-serif">/ start timer</text><text x="259.49" y="361.01" fill="#000" font-size="13" textLength="14.46" font-family="Helvetica, Arial, sans-serif">do</text><text x="259.49" y="374.01" fill="#000" font-size="13" textLength="153.918" font-family="Helvetica, Arial, sans-serif">/ accept and save answers</text><text x="259.49" y="387.01" fill="#000" font-size="13" textLength="20.23" font-family="Helvetica, Arial, sans-serif">exit</text><text x="259.49" y="400.01" fill="#000" font-size="13" textLength="64.295" font-family="Helvetica, Arial, sans-serif">/ stop timer</text></g><g class="entity" data-qualified-name="Disconnected" id="ent0003" data-source-line="7"><rect x="7" y="518" width="134.893" height="59" fill="#FFF" style="stroke:#181818;stroke-width:0.5;"/><line x1="7" y1="541" x2="141.893" y2="541" style="stroke:#181818;stroke-width:0.5;"/><text x="35.062" y="533.01" fill="#000" font-size="13" textLength="78.768" font-family="Helvetica, Arial, sans-serif">Disconnected</text><text x="12" y="556.01" fill="#000" font-size="13" textLength="14.46" font-family="Helvetica, Arial, sans-serif">do</text><text x="12" y="569.01" fill="#000" font-size="13" textLength="114.893" font-family="Helvetica, Arial, sans-serif">/ keep timer running</text></g><g class="entity" data-qualified-name="Submitted" id="ent0004" data-source-line="8"><rect x="213.27" y="696" width="102.361" height="59" fill="#FFF" style="stroke:#181818;stroke-width:0.5;"/><line x1="213.27" y1="719" x2="315.631" y2="719" style="stroke:#181818;stroke-width:0.5;"/><text x="235.185" y="711.01" fill="#000" font-size="13" textLength="58.532" font-family="Helvetica, Arial, sans-serif">Submitted</text><text x="218.27" y="734.01" fill="#000" font-size="13" textLength="28.901" font-family="Helvetica, Arial, sans-serif">entry</text><text x="218.27" y="747.01" fill="#000" font-size="13" textLength="82.361" font-family="Helvetica, Arial, sans-serif">/ lock answers</text></g><g class="entity" data-qualified-name="Evaluating" id="ent0005" data-source-line="9"><rect x="171.93" y="843" width="197.042" height="59" fill="#FFF" style="stroke:#181818;stroke-width:0.5;"/><line x1="171.93" y1="866" x2="368.972" y2="866" style="stroke:#181818;stroke-width:0.5;"/><text x="240.097" y="858.01" fill="#000" font-size="13" textLength="60.709" font-family="Helvetica, Arial, sans-serif">Evaluating</text><text x="176.93" y="881.01" fill="#000" font-size="13" textLength="28.901" font-family="Helvetica, Arial, sans-serif">entry</text><text x="176.93" y="894.01" fill="#000" font-size="13" textLength="177.042" font-family="Helvetica, Arial, sans-serif">/ auto-grade objective answers</text></g><g class="entity" data-qualified-name="Evaluated" id="ent0006" data-source-line="10"><rect x="176.29" y="1003" width="196.306" height="59" fill="#FFF" style="stroke:#181818;stroke-width:0.5;"/><line x1="176.29" y1="1026" x2="372.596" y2="1026" style="stroke:#181818;stroke-width:0.5;"/><text x="245.533" y="1018.01" fill="#000" font-size="13" textLength="57.821" font-family="Helvetica, Arial, sans-serif">Evaluated</text><text x="181.29" y="1041.01" fill="#000" font-size="13" textLength="28.901" font-family="Helvetica, Arial, sans-serif">entry</text><text x="181.29" y="1054.01" fill="#000" font-size="13" textLength="176.306" font-family="Helvetica, Arial, sans-serif">/ compute total, set pass or fail</text></g><g class="entity" data-qualified-name="Published" id="ent0007" data-source-line="11"><rect x="223.17" y="1150" width="104.551" height="59" fill="#FFF" style="stroke:#181818;stroke-width:0.5;"/><line x1="223.17" y1="1173" x2="327.721" y2="1173" style="stroke:#181818;stroke-width:0.5;"/><text x="246.897" y="1165.01" fill="#000" font-size="13" textLength="57.097" font-family="Helvetica, Arial, sans-serif">Published</text><text x="228.17" y="1188.01" fill="#000" font-size="13" textLength="28.901" font-family="Helvetica, Arial, sans-serif">entry</text><text x="228.17" y="1201.01" fill="#000" font-size="13" textLength="84.551" font-family="Helvetica, Arial, sans-serif">/ notify student</text></g><g class="entity" data-qualified-name="UnderReview" id="ent0008" data-source-line="12"><rect x="112.06" y="1297" width="176.781" height="59" fill="#FFF" style="stroke:#181818;stroke-width:0.5;"/><line x1="112.06" y1="1320" x2="288.841" y2="1320" style="stroke:#181818;stroke-width:0.5;"/><text x="161.435" y="1312.01" fill="#000" font-size="13" textLength="78.032" font-family="Helvetica, Arial, sans-serif">UnderReview</text><text x="117.06" y="1335.01" fill="#000" font-size="13" textLength="14.46" font-family="Helvetica, Arial, sans-serif">do</text><text x="117.06" y="1348.01" fill="#000" font-size="13" textLength="156.781" font-family="Helvetica, Arial, sans-serif">/ re-mark disputed answers</text></g><g class="entity" data-qualified-name="Terminated" id="ent0009" data-source-line="13"><rect x="590.87" y="607" width="95.15" height="59" fill="#FFF" style="stroke:#181818;stroke-width:0.5;"/><line x1="590.87" y1="630" x2="686.02" y2="630" style="stroke:#181818;stroke-width:0.5;"/><text x="605.57" y="622.01" fill="#000" font-size="13" textLength="65.749" font-family="Helvetica, Arial, sans-serif">Terminated</text><text x="595.87" y="645.01" fill="#000" font-size="13" textLength="28.901" font-family="Helvetica, Arial, sans-serif">entry</text><text x="595.87" y="658.01" fill="#000" font-size="13" textLength="75.15" font-family="Helvetica, Arial, sans-serif">/ flag attempt</text></g><g class="start_entity" data-qualified-name=".start." id="ent0010" data-source-line="2"><ellipse cx="526.45" cy="52" rx="10" ry="10" fill="#222" style="stroke:#222;stroke-width:1;"/></g><g class="entity" data-qualified-name="Expired" id="ent0013" data-source-line="16"><rect x="802.41" y="438" width="64.078" height="50" fill="#FFF" style="stroke:#181818;stroke-width:0.5;"/><line x1="802.41" y1="461" x2="866.488" y2="461" style="stroke:#181818;stroke-width:0.5;"/><text x="812.41" y="453.01" fill="#000" font-size="13" textLength="44.078" font-family="Helvetica, Arial, sans-serif">Expired</text></g><g class="end_entity" data-qualified-name=".end." id="ent0027" data-source-line="29"><ellipse cx="638.45" cy="1326.5" rx="11" ry="11" fill="none" style="stroke:#222;stroke-width:1;"/><ellipse cx="638.45" cy="1326.5" rx="6" ry="6" fill="#222" style="stroke:#222;stroke-width:1;"/></g><g class="link" data-entity-1="ent0010" data-entity-2="ent0001" id="lnk11" data-source-line="2" data-link-type="dependency"><path d="M526.45,62.21 C526.45,78.26 526.45,107.02 526.45,131.59" style="stroke:#181818;stroke-width:1.2;" fill="none" id="*start*-to-Registered"/><polygon points="526.45,136.59,530.45,127.59,526.45,131.59,522.45,127.59,526.45,136.59" fill="#181818" style="stroke:#181818;stroke-width:1.2;stroke-linejoin:miter;stroke-miterlimit:10;"/><text x="527.45" y="103.01" fill="#000" font-size="13" textLength="216.055" font-family="Helvetica, Arial, sans-serif">student enrols / create attempt record</text></g><g class="link" data-entity-1="ent0001" data-entity-2="ent0002" id="lnk12" data-source-line="15" data-link-type="dependency"><path d="M497.54,196.25 C470.61,223.03 433.285,260.154 400.125,293.144" style="stroke:#181818;stroke-width:1.2;" fill="none" id="Registered-to-InProgress"/><polygon points="396.58,296.67,405.781,293.158,400.125,293.144,400.139,287.487,396.58,296.67" fill="#181818" style="stroke:#181818;stroke-width:1.2;stroke-linejoin:miter;stroke-miterlimit:10;"/><text x="479.909" y="237.01" fill="#000" font-size="13" textLength="58.513" font-family="Helvetica, Arial, sans-serif">startExam</text><text x="467.61" y="250.01" fill="#000" font-size="13" textLength="83.11" font-family="Helvetica, Arial, sans-serif">[window open]</text><text x="474.834" y="263.01" fill="#000" font-size="13" textLength="68.663" font-family="Helvetica, Arial, sans-serif">/ load paper</text></g><g class="link" data-entity-1="ent0001" data-entity-2="ent0013" id="lnk14" data-source-line="16" data-link-type="dependency"><path d="M556.54,196.27 C617.09,254.17 749.036,380.334 805.446,434.274" style="stroke:#181818;stroke-width:1.2;" fill="none" id="Registered-to-Expired"/><polygon points="809.06,437.73,805.32,428.619,805.446,434.274,799.791,434.401,809.06,437.73" fill="#181818" style="stroke:#181818;stroke-width:1.2;stroke-linejoin:miter;stroke-miterlimit:10;"/><text x="629.57" y="243.51" fill="#000" font-size="13" textLength="83.821" font-family="Helvetica, Arial, sans-serif">windowClosed</text><text x="637.155" y="256.51" fill="#000" font-size="13" textLength="68.65" font-family="Helvetica, Arial, sans-serif">[not started]</text></g><g class="link" data-entity-1="ent0002" data-entity-2="ent0002" id="lnk15" data-source-line="17" data-link-type="dependency"><path d="M428.88,333.09 C448.8,334.8 463.41,341.27 463.41,352.5 C463.41,363.73 453.782,369.772 433.862,371.482" style="stroke:#181818;stroke-width:1.2;" fill="none" id="InProgress-to-InProgress"/><polygon points="428.88,371.91,438.189,375.126,433.862,371.482,437.505,367.155,428.88,371.91" fill="#181818" style="stroke:#181818;stroke-width:1.2;stroke-linejoin:miter;stroke-miterlimit:10;"/><text x="470.127" y="349.51" fill="#000" font-size="13" textLength="78.768" font-family="Helvetica, Arial, sans-serif">answerSaved</text><text x="469.41" y="362.51" fill="#000" font-size="13" textLength="80.203" font-family="Helvetica, Arial, sans-serif">/ save answer</text></g><g class="link" data-entity-1="ent0002" data-entity-2="ent0003" id="lnk16" data-source-line="18" data-link-type="dependency"><path d="M254.21,367.09 C177.76,380.99 75.09,405.19 50.45,438 C33.19,460.99 41.854,489.528 54.034,513.088" style="stroke:#181818;stroke-width:1.2;" fill="none" id="InProgress-to-Disconnected"/><polygon points="56.33,517.53,55.75,507.698,54.034,513.088,48.644,511.372,56.33,517.53" fill="#181818" style="stroke:#181818;stroke-width:1.2;stroke-linejoin:miter;stroke-miterlimit:10;"/><text x="51.45" y="466.51" fill="#000" font-size="13" textLength="87.452" font-family="Helvetica, Arial, sans-serif">connectionLost</text></g><g class="link" data-entity-1="ent0003" data-entity-2="ent0002" id="lnk17" data-source-line="19" data-link-type="dependency"><path d="M111.76,517.7 C122.48,508.7 133.86,498.38 143.45,488 C162.03,467.89 158.75,455.93 179.45,438 C201.51,418.89 224.17,404.87 249.88,391.84" style="stroke:#181818;stroke-width:1.2;" fill="none" id="Disconnected-to-InProgress"/><polygon points="254.34,389.58,244.504,390.081,249.88,391.84,248.12,397.217,254.34,389.58" fill="#181818" style="stroke:#181818;stroke-width:1.2;stroke-linejoin:miter;stroke-miterlimit:10;"/><text x="180.45" y="453.51" fill="#000" font-size="13" textLength="57.091" font-family="Helvetica, Arial, sans-serif">reconnect</text><text x="182.627" y="466.51" fill="#000" font-size="13" textLength="52.736" font-family="Helvetica, Arial, sans-serif">[time left]</text><text x="183.71" y="479.51" fill="#000" font-size="13" textLength="50.572" font-family="Helvetica, Arial, sans-serif">/ resume</text></g><g class="link" data-entity-1="ent0003" data-entity-2="ent0004" id="lnk18" data-source-line="20" data-link-type="dependency"><path d="M64.55,577.32 C57.64,603.12 52.66,640.68 71.45,666 C88.39,688.85 156.677,705.332 207.887,715.002" style="stroke:#181818;stroke-width:1.2;" fill="none" id="Disconnected-to-Submitted"/><polygon points="212.8,715.93,204.698,710.33,207.887,715.002,203.214,718.191,212.8,715.93" fill="#181818" style="stroke:#181818;stroke-width:1.2;stroke-linejoin:miter;stroke-miterlimit:10;"/><text x="134.594" y="633.51" fill="#000" font-size="13" textLength="41.177" font-family="Helvetica, Arial, sans-serif">timeUp</text><text x="72.45" y="646.51" fill="#000" font-size="13" textLength="165.464" font-family="Helvetica, Arial, sans-serif">/ auto-submit saved answers</text></g><g class="link" data-entity-1="ent0002" data-entity-2="ent0004" id="lnk19" data-source-line="21" data-link-type="dependency"><path d="M322.24,408.49 C311.81,440.17 299.44,480.94 291.45,518 C277.95,580.56 270.643,650.339 267.153,690.529" style="stroke:#181818;stroke-width:1.2;" fill="none" id="InProgress-to-Submitted"/><polygon points="266.72,695.51,271.484,686.89,267.153,690.529,263.514,686.198,266.72,695.51" fill="#181818" style="stroke:#181818;stroke-width:1.2;stroke-linejoin:miter;stroke-miterlimit:10;"/><text x="314.486" y="544.51" fill="#000" font-size="13" textLength="38.289" font-family="Helvetica, Arial, sans-serif">submit</text><text x="292.45" y="557.51" fill="#000" font-size="13" textLength="82.361" font-family="Helvetica, Arial, sans-serif">/ lock answers</text></g><g class="link" data-entity-1="ent0002" data-entity-2="ent0004" id="lnk20" data-source-line="22" data-link-type="dependency"><path d="M365.64,408.47 C382.4,454.48 398.58,521.35 379.45,577 C363.14,624.44 328.205,664.844 300.225,692.204" style="stroke:#181818;stroke-width:1.2;" fill="none" id="InProgress-to-Submitted-1"/><polygon points="296.65,695.7,305.881,692.268,300.225,692.204,300.288,686.548,296.65,695.7" fill="#181818" style="stroke:#181818;stroke-width:1.2;stroke-linejoin:miter;stroke-miterlimit:10;"/><text x="451.244" y="544.51" fill="#000" font-size="13" textLength="41.177" font-family="Helvetica, Arial, sans-serif">timeUp</text><text x="389.1" y="557.51" fill="#000" font-size="13" textLength="165.464" font-family="Helvetica, Arial, sans-serif">/ auto-submit saved answers</text></g><g class="link" data-entity-1="ent0002" data-entity-2="ent0009" id="lnk21" data-source-line="23" data-link-type="dependency"><path d="M428.63,392.85 C482.49,421.01 549.47,463.52 593.45,518 C614.58,544.18 625.388,576.522 631.588,602.012" style="stroke:#181818;stroke-width:1.2;" fill="none" id="InProgress-to-Terminated"/><polygon points="632.77,606.87,634.53,597.18,631.588,602.012,626.756,599.07,632.77,606.87" fill="#181818" style="stroke:#181818;stroke-width:1.2;stroke-linejoin:miter;stroke-miterlimit:10;"/><text x="582.236" y="460.01" fill="#000" font-size="13" textLength="118.498" font-family="Helvetica, Arial, sans-serif">malpracticeDetected</text><text x="562.73" y="473.01" fill="#000" font-size="13" textLength="157.511" font-family="Helvetica, Arial, sans-serif">/ lock answers, flag attempt</text></g><g class="link" data-entity-1="ent0004" data-entity-2="ent0005" id="lnk22" data-source-line="24" data-link-type="dependency"><path d="M265.65,755.49 C266.69,780.78 267.993,812.284 269.043,837.564" style="stroke:#181818;stroke-width:1.2;" fill="none" id="Submitted-to-Evaluating"/><polygon points="269.25,842.56,272.873,833.402,269.043,837.564,264.88,833.734,269.25,842.56" fill="#181818" style="stroke:#181818;stroke-width:1.2;stroke-linejoin:miter;stroke-miterlimit:10;"/><text x="280.901" y="796.01" fill="#000" font-size="13" textLength="101.182" font-family="Helvetica, Arial, sans-serif">evaluationStarted</text><text x="268.98" y="809.01" fill="#000" font-size="13" textLength="125.023" font-family="Helvetica, Arial, sans-serif">/ auto-grade objective</text></g><g class="link" data-entity-1="ent0005" data-entity-2="ent0006" id="lnk23" data-source-line="25" data-link-type="dependency"><path d="M271.18,902.48 C271.9,930.99 272.873,969.262 273.593,997.702" style="stroke:#181818;stroke-width:1.2;" fill="none" id="Evaluating-to-Evaluated"/><polygon points="273.72,1002.7,277.491,993.602,273.593,997.702,269.494,993.804,273.72,1002.7" fill="#181818" style="stroke:#181818;stroke-width:1.2;stroke-linejoin:miter;stroke-miterlimit:10;"/><text x="318.014" y="943.01" fill="#000" font-size="13" textLength="93.926" font-family="Helvetica, Arial, sans-serif">allMarksEntered</text><text x="273.92" y="956.01" fill="#000" font-size="13" textLength="182.114" font-family="Helvetica, Arial, sans-serif">[objective and descriptive done]</text><text x="276.824" y="969.01" fill="#000" font-size="13" textLength="176.306" font-family="Helvetica, Arial, sans-serif">/ compute total, set pass or fail</text></g><g class="link" data-entity-1="ent0006" data-entity-2="ent0007" id="lnk24" data-source-line="26" data-link-type="dependency"><path d="M274.65,1062.49 C274.82,1087.78 275.034,1119.28 275.214,1144.56" style="stroke:#181818;stroke-width:1.2;" fill="none" id="Evaluated-to-Published"/><polygon points="275.25,1149.56,279.186,1140.532,275.214,1144.56,271.186,1140.589,275.25,1149.56" fill="#181818" style="stroke:#181818;stroke-width:1.2;stroke-linejoin:miter;stroke-miterlimit:10;"/><text x="276.04" y="1103.01" fill="#000" font-size="13" textLength="86.715" font-family="Helvetica, Arial, sans-serif">resultReleased</text><text x="277.122" y="1116.01" fill="#000" font-size="13" textLength="84.551" font-family="Helvetica, Arial, sans-serif">/ notify student</text></g><g class="link" data-entity-1="ent0007" data-entity-2="ent0008" id="lnk25" data-source-line="27" data-link-type="dependency"><path d="M222.83,1185.58 C188.04,1191.99 144.86,1206.44 122.45,1239 C108.29,1259.57 121.898,1277.487 143.968,1293.557" style="stroke:#181818;stroke-width:1.2;" fill="none" id="Published-to-UnderReview"/><polygon points="148.01,1296.5,143.089,1287.969,143.968,1293.557,138.38,1294.436,148.01,1296.5" fill="#181818" style="stroke:#181818;stroke-width:1.2;stroke-linejoin:miter;stroke-miterlimit:10;"/><text x="123.45" y="1250.01" fill="#000" font-size="13" textLength="108.399" font-family="Helvetica, Arial, sans-serif">recheckRequested</text><text x="136.463" y="1263.01" fill="#000" font-size="13" textLength="82.374" font-family="Helvetica, Arial, sans-serif">[within 7 days]</text></g><g class="link" data-entity-1="ent0008" data-entity-2="ent0007" id="lnk26" data-source-line="28" data-link-type="dependency"><path d="M219.14,1296.77 C224.95,1287.42 231.19,1276.9 236.45,1267 C246.4,1248.23 254.26,1231.006 261.56,1213.976" style="stroke:#181818;stroke-width:1.2;" fill="none" id="UnderReview-to-Published"/><polygon points="263.53,1209.38,256.308,1216.076,261.56,1213.976,263.661,1219.228,263.53,1209.38" fill="#181818" style="stroke:#181818;stroke-width:1.2;stroke-linejoin:miter;stroke-miterlimit:10;"/><text x="281.285" y="1250.01" fill="#000" font-size="13" textLength="108.386" font-family="Helvetica, Arial, sans-serif">recheckCompleted</text><text x="250.21" y="1263.01" fill="#000" font-size="13" textLength="170.536" font-family="Helvetica, Arial, sans-serif">/ update marks, notify student</text></g><g class="link" data-entity-1="ent0007" data-entity-2="ent0027" id="lnk28" data-source-line="29" data-link-type="dependency"><path d="M328.05,1198.89 C358.08,1209.78 396.24,1224.29 429.45,1239 C454.53,1250.11 459.37,1255.89 484.45,1267 C537.53,1290.51 598.528,1311.904 623.468,1320.424" style="stroke:#181818;stroke-width:1.2;" fill="none" id="Published-to-*end*"/><polygon points="628.2,1322.04,620.976,1315.345,623.468,1320.424,618.39,1322.916,628.2,1322.04" fill="#181818" style="stroke:#181818;stroke-width:1.2;stroke-linejoin:miter;stroke-miterlimit:10;"/><text x="524.114" y="1250.01" fill="#000" font-size="13" textLength="49.137" font-family="Helvetica, Arial, sans-serif">archived</text><text x="485.45" y="1263.01" fill="#000" font-size="13" textLength="126.464" font-family="Helvetica, Arial, sans-serif">[retention period over]</text></g><g class="link" data-entity-1="ent0013" data-entity-2="ent0027" id="lnk29" data-source-line="30" data-link-type="dependency"><path d="M819.6,488.28 C801.25,520.64 772.45,580.25 772.45,635.5 C772.45,635.5 772.45,635.5 772.45,1180.5 C772.45,1253.85 683.297,1303.684 652.567,1318.794" style="stroke:#181818;stroke-width:1.2;" fill="none" id="Expired-to-*end*"/><polygon points="648.08,1321,657.921,1320.618,652.567,1318.794,654.391,1313.439,648.08,1321" fill="#181818" style="stroke:#181818;stroke-width:1.2;stroke-linejoin:miter;stroke-miterlimit:10;"/></g><g class="link" data-entity-1="ent0009" data-entity-2="ent0027" id="lnk30" data-source-line="31" data-link-type="dependency"><path d="M638.45,666.49 C638.45,698.64 638.45,752.02 638.45,798 C638.45,798 638.45,798 638.45,1180.5 C638.45,1231.1 638.45,1286.63 638.45,1310.3" style="stroke:#181818;stroke-width:1.2;" fill="none" id="Terminated-to-*end*"/><polygon points="638.45,1315.3,642.45,1306.3,638.45,1310.3,634.45,1306.3,638.45,1315.3" fill="#181818" style="stroke:#181818;stroke-width:1.2;stroke-linejoin:miter;stroke-miterlimit:10;"/></g></g></svg>