<svg xmlns="http://www.w3.org/2000/svg" xmlns:xlink="http://www.w3.org/1999/xlink" version="1.1" data-diagram-type="ACTIVITY" width="851px" height="932px" viewBox="0 0 851 932" zoomAndPan="magnify" preserveAspectRatio="none" contentStyleType="text/css"><defs/><g font-family="Helvetica, Arial, sans-serif" lengthAdjust="spacing"><g class="title" data-source-line="3"><text x="162.769" y="31.55" fill="#000" font-size="15" textLength="524.29" font-weight="700" font-family="Helvetica, Arial, sans-serif">Activity Diagram: Online Banking System (1 of 2: login and service menu)</text></g><rect x="20" y="53.18" width="804.828" height="16" fill="none" style="stroke:none;"/><ellipse cx="159.289" cy="84.18" rx="10" ry="10" fill="#222" style="stroke:#222;stroke-width:1;"/><rect x="71.457" y="114.18" width="175.664" height="36" fill="#FFF" style="stroke:#181818;stroke-width:0.5;"/><text x="81.457" y="136.5" fill="#000" font-size="16" textLength="155.664" font-family="Helvetica, Arial, sans-serif">Open net banking site</text><rect x="50.129" y="170.18" width="218.32" height="36" fill="#FFF" style="stroke:#181818;stroke-width:0.5;"/><text x="60.129" y="192.5" fill="#000" font-size="16" textLength="198.32" font-family="Helvetica, Arial, sans-serif">Enter user ID and password</text><rect x="94.152" y="458.18" width="130.273" height="36" fill="#FFF" style="stroke:#181818;stroke-width:0.5;"/><text x="104.152" y="480.5" fill="#000" font-size="16" textLength="110.273" font-family="Helvetica, Arial, sans-serif">Choose service</text><polygon points="129.5,514.18,189.078,514.18,201.078,526.18,189.078,538.18,129.5,538.18,117.5,526.18,129.5,514.18" fill="#FFF" style="stroke:#181818;stroke-width:0.5;stroke-linejoin:miter;stroke-miterlimit:10;"/><text x="129.5" y="530.5" fill="#000" font-size="16" textLength="59.578" font-family="Helvetica, Arial, sans-serif">service?</text><text x="25" y="522.5" fill="#000" font-size="16" textLength="92.5" font-family="Helvetica, Arial, sans-serif">view balance</text><text x="201.078" y="522.5" fill="#000" font-size="16" textLength="89.828" font-family="Helvetica, Arial, sans-serif">fund transfer</text><rect x="180.861" y="558.18" width="132.938" height="52" fill="#FFF" style="stroke:#181818;stroke-width:0.5;"/><text x="190.861" y="580.5" fill="#000" font-size="16" textLength="95.156" font-family="Helvetica, Arial, sans-serif">Fund transfer</text><text x="190.861" y="596.5" fill="#000" font-size="16" textLength="112.938" font-family="Helvetica, Arial, sans-serif">(diagram 2 of 2)</text><polygon points="159.289,675.18,171.289,687.18,159.289,699.18,147.289,687.18,159.289,675.18" fill="#FFF" style="stroke:#181818;stroke-width:0.5;stroke-linejoin:miter;stroke-miterlimit:10;"/><polygon points="100.145,719.18,218.434,719.18,230.434,731.18,218.434,743.18,100.145,743.18,88.145,731.18,100.145,719.18" fill="#FFF" style="stroke:#181818;stroke-width:0.5;stroke-linejoin:miter;stroke-miterlimit:10;"/><text x="163.289" y="755.5" fill="#000" font-size="16" textLength="17.797" font-family="Helvetica, Arial, sans-serif">no</text><text x="100.145" y="735.5" fill="#000" font-size="16" textLength="118.289" font-family="Helvetica, Arial, sans-serif">another service?</text><text x="230.434" y="727.5" fill="#000" font-size="16" textLength="24.898" font-family="Helvetica, Arial, sans-serif">yes</text><rect x="124.82" y="777" width="68.938" height="36" fill="#FFF" style="stroke:#181818;stroke-width:0.5;"/><text x="134.82" y="799.32" fill="#000" font-size="16" textLength="48.938" font-family="Helvetica, Arial, sans-serif">Logout</text><line x1="20" y1="53.18" x2="20" y2="911" style="stroke:#000;stroke-width:1.5;"/><rect x="398.496" y="226.18" width="159.641" height="36" fill="#FFF" style="stroke:#181818;stroke-width:0.5;"/><text x="408.496" y="248.5" fill="#000" font-size="16" textLength="139.641" font-family="Helvetica, Arial, sans-serif">Validate credentials</text><polygon points="416.504,282.18,540.129,282.18,552.129,294.18,540.129,306.18,416.504,306.18,404.504,294.18,416.504,282.18" fill="#FFF" style="stroke:#181818;stroke-width:0.5;stroke-linejoin:miter;stroke-miterlimit:10;"/><text x="416.504" y="298.5" fill="#000" font-size="16" textLength="123.625" font-family="Helvetica, Arial, sans-serif">credentials valid?</text><text x="379.605" y="290.5" fill="#000" font-size="16" textLength="24.898" font-family="Helvetica, Arial, sans-serif">yes</text><text x="552.129" y="290.5" fill="#000" font-size="16" textLength="17.797" font-family="Helvetica, Arial, sans-serif">no</text><rect x="324.461" y="316.18" width="140.086" height="36" fill="#FFF" style="stroke:#181818;stroke-width:0.5;"/><text x="334.461" y="338.5" fill="#000" font-size="16" textLength="120.086" font-family="Helvetica, Arial, sans-serif">Show dashboard</text><rect x="493.879" y="316.18" width="136.5" height="36" fill="#FFF" style="stroke:#181818;stroke-width:0.5;"/><text x="503.879" y="338.5" fill="#000" font-size="16" textLength="116.5" font-family="Helvetica, Arial, sans-serif">Show login error</text><ellipse cx="562.129" cy="383.18" rx="11" ry="11" fill="none" style="stroke:#222;stroke-width:1;"/><ellipse cx="562.129" cy="383.18" rx="6" ry="6" fill="#222" style="stroke:#222;stroke-width:1;"/><rect x="323.799" y="629.18" width="132.953" height="36" fill="#FFF" style="stroke:#181818;stroke-width:0.5;"/><text x="333.799" y="651.5" fill="#000" font-size="16" textLength="112.953" font-family="Helvetica, Arial, sans-serif">Display balance</text><polygon points="478.316,414.18,490.316,426.18,478.316,438.18,466.316,426.18,478.316,414.18" fill="#FFF" style="stroke:#181818;stroke-width:0.5;stroke-linejoin:miter;stroke-miterlimit:10;"/><rect x="424.734" y="833" width="107.164" height="36" fill="#FFF" style="stroke:#181818;stroke-width:0.5;"/><text x="434.734" y="855.32" fill="#000" font-size="16" textLength="87.164" font-family="Helvetica, Arial, sans-serif">End session</text><ellipse cx="478.316" cy="900" rx="11" ry="11" fill="none" style="stroke:#222;stroke-width:1;"/><ellipse cx="478.316" cy="900" rx="6" ry="6" fill="#222" style="stroke:#222;stroke-width:1;"/><line x1="317.799" y1="53.18" x2="317.799" y2="911" style="stroke:#000;stroke-width:1.5;"/><rect x="640.379" y="558.18" width="179.227" height="36" fill="#FFF" style="stroke:#181818;stroke-width:0.5;"/><text x="650.379" y="580.5" fill="#000" font-size="16" textLength="159.227" font-family="Helvetica, Arial, sans-serif">Read account balance</text><line x1="634.379" y1="53.18" x2="634.379" y2="911" style="stroke:#000;stroke-width:1.5;"/><line x1="823.605" y1="53.18" x2="823.605" y2="911" style="stroke:#000;stroke-width:1.5;"/><line x1="159.289" y1="94.18" x2="159.289" y2="114.18" style="stroke:#181818;stroke-width:1.2;"/><polygon points="155.289,104.18,159.289,114.18,163.289,104.18,159.289,108.18" fill="#181818" style="stroke:#181818;stroke-width:1;stroke-linejoin:miter;stroke-miterlimit:10;"/><line x1="159.289" y1="150.18" x2="159.289" y2="170.18" style="stroke:#181818;stroke-width:1.2;"/><polygon points="155.289,160.18,159.289,170.18,163.289,160.18,159.289,164.18" fill="#181818" style="stroke:#181818;stroke-width:1;stroke-linejoin:miter;stroke-miterlimit:10;"/><line x1="201.078" y1="526.18" x2="247.33" y2="526.18" style="stroke:#181818;stroke-width:1.2;"/><line x1="247.33" y1="526.18" x2="247.33" y2="558.18" style="stroke:#181818;stroke-width:1.2;"/><polygon points="243.33,548.18,247.33,558.18,251.33,548.18,247.33,552.18" fill="#181818" style="stroke:#181818;stroke-width:1;stroke-linejoin:miter;stroke-miterlimit:10;"/><line x1="247.33" y1="610.18" x2="247.33" y2="687.18" style="stroke:#181818;stroke-width:1.2;"/><line x1="247.33" y1="687.18" x2="171.289" y2="687.18" style="stroke:#181818;stroke-width:1.2;"/><polygon points="181.289,683.18,171.289,687.18,181.289,691.18,177.289,687.18" fill="#181818" style="stroke:#181818;stroke-width:1;stroke-linejoin:miter;stroke-miterlimit:10;"/><line x1="159.289" y1="494.18" x2="159.289" y2="514.18" style="stroke:#181818;stroke-width:1.2;"/><polygon points="155.289,504.18,159.289,514.18,163.289,504.18,159.289,508.18" fill="#181818" style="stroke:#181818;stroke-width:1;stroke-linejoin:miter;stroke-miterlimit:10;"/><line x1="159.289" y1="699.18" x2="159.289" y2="719.18" style="stroke:#181818;stroke-width:1.2;"/><polygon points="155.289,709.18,159.289,719.18,163.289,709.18,159.289,713.18" fill="#181818" style="stroke:#181818;stroke-width:1;stroke-linejoin:miter;stroke-miterlimit:10;"/><line x1="159.289" y1="743.18" x2="159.289" y2="777" style="stroke:#181818;stroke-width:1.2;"/><polygon points="155.289,767,159.289,777,163.289,767,159.289,771" fill="#181818" style="stroke:#181818;stroke-width:1;stroke-linejoin:miter;stroke-miterlimit:10;"/><line x1="562.129" y1="352.18" x2="562.129" y2="372.18" style="stroke:#181818;stroke-width:1.2;"/><polygon points="558.129,362.18,562.129,372.18,566.129,362.18,562.129,366.18" fill="#181818" style="stroke:#181818;stroke-width:1;stroke-linejoin:miter;stroke-miterlimit:10;"/><line x1="404.504" y1="294.18" x2="394.504" y2="294.18" style="stroke:#181818;stroke-width:1.2;"/><line x1="394.504" y1="294.18" x2="394.504" y2="316.18" style="stroke:#181818;stroke-width:1.2;"/><polygon points="390.504,306.18,394.504,316.18,398.504,306.18,394.504,310.18" fill="#181818" style="stroke:#181818;stroke-width:1;stroke-linejoin:miter;stroke-miterlimit:10;"/><line x1="552.129" y1="294.18" x2="562.129" y2="294.18" style="stroke:#181818;stroke-width:1.2;"/><line x1="562.129" y1="294.18" x2="562.129" y2="316.18" style="stroke:#181818;stroke-width:1.2;"/><polygon points="558.129,306.18,562.129,316.18,566.129,306.18,562.129,310.18" fill="#181818" style="stroke:#181818;stroke-width:1;stroke-linejoin:miter;stroke-miterlimit:10;"/><line x1="394.504" y1="352.18" x2="394.504" y2="399.18" style="stroke:#181818;stroke-width:1.2;"/><line x1="394.504" y1="399.18" x2="478.316" y2="399.18" style="stroke:#181818;stroke-width:1.2;"/><line x1="478.316" y1="399.18" x2="478.316" y2="414.18" style="stroke:#181818;stroke-width:1.2;"/><polygon points="474.316,404.18,478.316,414.18,482.316,404.18,478.316,408.18" fill="#181818" style="stroke:#181818;stroke-width:1;stroke-linejoin:miter;stroke-miterlimit:10;"/><line x1="478.316" y1="262.18" x2="478.316" y2="282.18" style="stroke:#181818;stroke-width:1.2;"/><polygon points="474.316,272.18,478.316,282.18,482.316,272.18,478.316,276.18" fill="#181818" style="stroke:#181818;stroke-width:1;stroke-linejoin:miter;stroke-miterlimit:10;"/><line x1="478.316" y1="869" x2="478.316" y2="889" style="stroke:#181818;stroke-width:1.2;"/><polygon points="474.316,879,478.316,889,482.316,879,478.316,883" fill="#181818" style="stroke:#181818;stroke-width:1;stroke-linejoin:miter;stroke-miterlimit:10;"/><line x1="159.289" y1="206.18" x2="159.289" y2="211.18" style="stroke:#181818;stroke-width:1.2;"/><line x1="159.289" y1="211.18" x2="478.316" y2="211.18" style="stroke:#181818;stroke-width:1.2;"/><line x1="478.316" y1="211.18" x2="478.316" y2="226.18" style="stroke:#181818;stroke-width:1.2;"/><polygon points="474.316,216.18,478.316,226.18,482.316,216.18,478.316,220.18" fill="#181818" style="stroke:#181818;stroke-width:1;stroke-linejoin:miter;stroke-miterlimit:10;"/><line x1="729.992" y1="594.18" x2="729.992" y2="611.68" style="stroke:#181818;stroke-width:1.2;"/><line x1="729.992" y1="611.68" x2="390.275" y2="611.68" style="stroke:#181818;stroke-width:1.2;"/><line x1="390.275" y1="611.68" x2="390.275" y2="629.18" style="stroke:#181818;stroke-width:1.2;"/><polygon points="386.275,619.18,390.275,629.18,394.275,619.18,390.275,623.18" fill="#181818" style="stroke:#181818;stroke-width:1;stroke-linejoin:miter;stroke-miterlimit:10;"/><line x1="117.5" y1="526.18" x2="105.5" y2="526.18" style="stroke:#181818;stroke-width:1.2;"/><line x1="105.5" y1="526.18" x2="105.5" y2="544.18" style="stroke:#181818;stroke-width:1.2;"/><line x1="105.5" y1="544.18" x2="729.992" y2="544.18" style="stroke:#181818;stroke-width:1.2;"/><line x1="729.992" y1="544.18" x2="729.992" y2="558.18" style="stroke:#181818;stroke-width:1.2;"/><polygon points="725.992,548.18,729.992,558.18,733.992,548.18,729.992,552.18" fill="#181818" style="stroke:#181818;stroke-width:1;stroke-linejoin:miter;stroke-miterlimit:10;"/><line x1="390.275" y1="665.18" x2="390.275" y2="669.18" style="stroke:#181818;stroke-width:1.2;"/><line x1="390.275" y1="669.18" x2="129.289" y2="669.18" style="stroke:#181818;stroke-width:1.2;"/><line x1="129.289" y1="669.18" x2="129.289" y2="687.18" style="stroke:#181818;stroke-width:1.2;"/><line x1="129.289" y1="687.18" x2="147.289" y2="687.18" style="stroke:#181818;stroke-width:1.2;"/><polygon points="137.289,683.18,147.289,687.18,137.289,691.18,141.289,687.18" fill="#181818" style="stroke:#181818;stroke-width:1;stroke-linejoin:miter;stroke-miterlimit:10;"/><line x1="478.316" y1="438.18" x2="478.316" y2="443.18" style="stroke:#181818;stroke-width:1.2;"/><line x1="478.316" y1="443.18" x2="159.289" y2="443.18" style="stroke:#181818;stroke-width:1.2;"/><line x1="159.289" y1="443.18" x2="159.289" y2="458.18" style="stroke:#181818;stroke-width:1.2;"/><polygon points="155.289,448.18,159.289,458.18,163.289,448.18,159.289,452.18" fill="#181818" style="stroke:#181818;stroke-width:1;stroke-linejoin:miter;stroke-miterlimit:10;"/><line x1="230.434" y1="731.18" x2="407.346" y2="731.18" style="stroke:#181818;stroke-width:1.2;"/><polygon points="403.346,581.18,407.346,571.18,411.346,581.18,407.346,577.18" fill="#181818" style="stroke:#181818;stroke-width:1.2;stroke-linejoin:miter;stroke-miterlimit:10;"/><line x1="407.346" y1="426.18" x2="407.346" y2="731.18" style="stroke:#181818;stroke-width:1.2;"/><line x1="407.346" y1="426.18" x2="466.316" y2="426.18" style="stroke:#181818;stroke-width:1.2;"/><polygon points="456.316,422.18,466.316,426.18,456.316,430.18,460.316,426.18" fill="#181818" style="stroke:#181818;stroke-width:1;stroke-linejoin:miter;stroke-miterlimit:10;"/><line x1="159.289" y1="813" x2="159.289" y2="818" style="stroke:#181818;stroke-width:1.2;"/><line x1="159.289" y1="818" x2="478.316" y2="818" style="stroke:#181818;stroke-width:1.2;"/><line x1="478.316" y1="818" x2="478.316" y2="833" style="stroke:#181818;stroke-width:1.2;"/><polygon points="474.316,823,478.316,833,482.316,823,478.316,827" fill="#181818" style="stroke:#181818;stroke-width:1;stroke-linejoin:miter;stroke-miterlimit:10;"/><text x="134.224" y="65.5" fill="#000" font-size="16" textLength="69.352" font-family="Helvetica, Arial, sans-serif">Customer</text><text x="433.854" y="65.5" fill="#000" font-size="16" textLength="84.469" font-family="Helvetica, Arial, sans-serif">Web Server</text><text x="680.52" y="65.5" fill="#000" font-size="16" textLength="96.945" font-family="Helvetica, Arial, sans-serif">Core Banking</text></g></svg>