<svg xmlns="http://www.w3.org/2000/svg" xmlns:xlink="http://www.w3.org/1999/xlink" version="1.1" data-diagram-type="DESCRIPTION" width="657px" height="318px" viewBox="0 0 657 318" zoomAndPan="magnify" preserveAspectRatio="none" contentStyleType="text/css"><defs/><g font-family="Helvetica, Arial, sans-serif" lengthAdjust="spacing"><g class="title" data-source-line="1"><text x="149.599" y="21.55" fill="#000" font-size="15" textLength="350.815" font-weight="700" font-family="Helvetica, Arial, sans-serif">Topology: four nodes on one CSMA bus, 2 Mbit/s</text></g><g class="entity" data-qualified-name="n0" id="ent0001" data-source-line="3"><polygon points="16,75,26,65,102.985,65,102.985,111,92.985,121,16,121,16,75" fill="#FFF" style="stroke:#181818;stroke-width:0.5;stroke-linejoin:miter;stroke-miterlimit:10;"/><line x1="92.985" y1="75" x2="102.985" y2="65" style="stroke:#181818;stroke-width:0.5;"/><line x1="16" y1="75" x2="92.985" y2="75" style="stroke:#181818;stroke-width:0.5;"/><line x1="92.985" y1="75" x2="92.985" y2="121" style="stroke:#181818;stroke-width:0.5;"/><text x="31" y="95.01" fill="#000" font-size="13" textLength="14.46" font-family="Helvetica, Arial, sans-serif">n0</text><text x="31" y="108.01" fill="#000" font-size="13" textLength="46.985" font-family="Helvetica, Arial, sans-serif">10.1.1.1</text></g><g class="entity" data-qualified-name="n1" id="ent0002" data-source-line="4"><polygon points="16,237,26,227,102.985,227,102.985,273,92.985,283,16,283,16,237" fill="#FFF" style="stroke:#181818;stroke-width:0.5;stroke-linejoin:miter;stroke-miterlimit:10;"/><line x1="92.985" y1="237" x2="102.985" y2="227" style="stroke:#181818;stroke-width:0.5;"/><line x1="16" y1="237" x2="92.985" y2="237" style="stroke:#181818;stroke-width:0.5;"/><line x1="92.985" y1="237" x2="92.985" y2="283" style="stroke:#181818;stroke-width:0.5;"/><text x="31" y="257.01" fill="#000" font-size="13" textLength="14.46" font-family="Helvetica, Arial, sans-serif">n1</text><text x="31" y="270.01" fill="#000" font-size="13" textLength="46.985" font-family="Helvetica, Arial, sans-serif">10.1.1.2</text></g><g class="entity" data-qualified-name="n2" id="ent0003" data-source-line="5"><polygon points="271.99,52,281.99,42,358.975,42,358.975,88,348.975,98,271.99,98,271.99,52" fill="#FFF" style="stroke:#181818;stroke-width:0.5;stroke-linejoin:miter;stroke-miterlimit:10;"/><line x1="348.975" y1="52" x2="358.975" y2="42" style="stroke:#181818;stroke-width:0.5;"/><line x1="271.99" y1="52" x2="348.975" y2="52" style="stroke:#181818;stroke-width:0.5;"/><line x1="348.975" y1="52" x2="348.975" y2="98" style="stroke:#181818;stroke-width:0.5;"/><text x="286.99" y="72.01" fill="#000" font-size="13" textLength="14.46" font-family="Helvetica, Arial, sans-serif">n2</text><text x="286.99" y="85.01" fill="#000" font-size="13" textLength="46.985" font-family="Helvetica, Arial, sans-serif">10.1.1.3</text></g><g class="entity" data-qualified-name="n3" id="ent0004" data-source-line="6"><polygon points="271.99,214,281.99,204,358.975,204,358.975,250,348.975,260,271.99,260,271.99,214" fill="#FFF" style="stroke:#181818;stroke-width:0.5;stroke-linejoin:miter;stroke-miterlimit:10;"/><line x1="348.975" y1="214" x2="358.975" y2="204" style="stroke:#181818;stroke-width:0.5;"/><line x1="271.99" y1="214" x2="348.975" y2="214" style="stroke:#181818;stroke-width:0.5;"/><line x1="348.975" y1="214" x2="348.975" y2="260" style="stroke:#181818;stroke-width:0.5;"/><text x="286.99" y="234.01" fill="#000" font-size="13" textLength="14.46" font-family="Helvetica, Arial, sans-serif">n3</text><text x="286.99" y="247.01" fill="#000" font-size="13" textLength="46.985" font-family="Helvetica, Arial, sans-serif">10.1.1.4</text></g><g class="entity" data-qualified-name="bus" id="ent0005" data-source-line="7"><rect x="419.97" y="155.5" width="223.042" height="33" fill="#FFF" style="stroke:#181818;stroke-width:0.5;"/><text x="429.97" y="175.51" fill="#000" font-size="13" textLength="203.042" font-family="Helvetica, Arial, sans-serif">CSMA bus, 2 Mbit/s, 6560 ns delay</text></g><g class="link" data-entity-1="ent0001" data-entity-2="ent0005" id="lnk6" data-source-line="8" data-link-type="association"><path d="M103.28,104.31 C113.01,106.69 123.32,109.07 132.99,111 C229.17,130.28 339.51,146.77 419.5,157.73" style="stroke:#181818;stroke-width:1.2;" fill="none" id="n0-bus"/></g><g class="link" data-entity-1="ent0002" data-entity-2="ent0005" id="lnk7" data-source-line="9" data-link-type="association"><path d="M103.44,267.53 C162.28,282.64 270.73,303.07 358.97,278 C420.59,260.5 481.76,213.85 511.64,188.68" style="stroke:#181818;stroke-width:1.2;" fill="none" id="n1-bus"/></g><g class="link" data-entity-1="ent0003" data-entity-2="ent0005" id="lnk8" data-source-line="10" data-link-type="association"><path d="M359.27,90.4 C399.04,109.35 457.58,137.25 494.86,155.02" style="stroke:#181818;stroke-width:1.2;" fill="none" id="n2-bus"/></g><g class="link" data-entity-1="ent0004" data-entity-2="ent0005" id="lnk9" data-source-line="11" data-link-type="association"><path d="M359.27,220.01 C390.99,211.11 434.65,198.87 469.94,188.98" style="stroke:#181818;stroke-width:1.2;" fill="none" id="n3-bus"/></g><g class="link" data-entity-1="ent0001" data-entity-2="ent0003" id="lnk10" data-source-line="12" data-link-type="dependency"><path d="M103.2,82.25 C112.93,80.17 123.27,78.25 132.99,77 C180.21,70.93 229.87,69.601 266.76,69.521" style="stroke:#181818;stroke-width:1.2;stroke-dasharray:7,7;" fill="none" id="n0-to-n2"/><polygon points="271.76,69.51,262.751,65.53,266.76,69.521,262.769,73.53,271.76,69.51" fill="#181818" style="stroke:#181818;stroke-width:1.2;stroke-linejoin:miter;stroke-miterlimit:10;"/><text x="134.49" y="65.88" fill="#000" font-size="13" textLength="106.228" font-family="Helvetica, Arial, sans-serif">TCP1 to port 8080</text></g><g class="link" data-entity-1="ent0003" data-entity-2="ent0001" id="lnk12" data-source-line="14" data-link-type="dependency"><path d="M271.54,89.56 C262,93.06 251.8,96.17 241.99,98 C195.19,106.73 145.428,103.981 108.398,99.801" style="stroke:#181818;stroke-width:1.2;stroke-dasharray:7,7;" fill="none" id="n2-to-n0"/><polygon points="103.43,99.24,111.925,104.224,108.398,99.801,112.822,96.275,103.43,99.24" fill="#181818" style="stroke:#181818;stroke-width:1.2;stroke-linejoin:miter;stroke-miterlimit:10;"/><text x="133.99" y="94.01" fill="#000" font-size="13" textLength="107.675" font-family="Helvetica, Arial, sans-serif">UDP1 to port 9000</text></g><g class="link" data-entity-1="ent0002" data-entity-2="ent0004" id="lnk11" data-source-line="13" data-link-type="dependency"><path d="M103.2,244.25 C112.93,242.17 123.27,240.25 132.99,239 C180.21,232.93 229.87,231.601 266.76,231.521" style="stroke:#181818;stroke-width:1.2;stroke-dasharray:7,7;" fill="none" id="n1-to-n3"/><polygon points="271.76,231.51,262.751,227.53,266.76,231.521,262.769,235.53,271.76,231.51" fill="#181818" style="stroke:#181818;stroke-width:1.2;stroke-linejoin:miter;stroke-miterlimit:10;"/><text x="134.49" y="227.88" fill="#000" font-size="13" textLength="106.228" font-family="Helvetica, Arial, sans-serif">TCP2 to port 8081</text></g><g class="link" data-entity-1="ent0004" data-entity-2="ent0002" id="lnk13" data-source-line="15" data-link-type="dependency"><path d="M271.54,251.56 C262,255.06 251.8,258.17 241.99,260 C195.19,268.73 145.428,265.981 108.398,261.801" style="stroke:#181818;stroke-width:1.2;stroke-dasharray:7,7;" fill="none" id="n3-to-n1"/><polygon points="103.43,261.24,111.925,266.224,108.398,261.801,112.822,258.275,103.43,261.24" fill="#181818" style="stroke:#181818;stroke-width:1.2;stroke-linejoin:miter;stroke-miterlimit:10;"/><text x="133.99" y="256.01" fill="#000" font-size="13" textLength="107.675" font-family="Helvetica, Arial, sans-serif">UDP2 to port 9001</text></g></g></svg>